<svg xmlns="http://www.w3.org/2000/svg" width="16" height="16" viewBox="0 0 16 16">
  <metadata><?xpacket begin="﻿" id="W5M0MpCehiHzreSzNTczkc9d"?>
<x:xmpmeta xmlns:x="adobe:ns:meta/" x:xmptk="Adobe XMP Core 5.6-c138 79.159824, 2016/09/14-01:09:01        ">
   <rdf:RDF xmlns:rdf="http://www.w3.org/1999/02/22-rdf-syntax-ns#">
      <rdf:Description rdf:about=""/>
   </rdf:RDF>
</x:xmpmeta>
                                                                                                    
                                                                                                    
                                                                                                    
                                                                                                    
                                                                                                    
                                                                                                    
                                                                                                    
                                                                                                    
                                                                                                    
                                                                                                    
                                                                                                    
                                                                                                    
                                                                                                    
                                                                                                    
                                                                                                    
                                                                                                    
                                                                                                    
                                                                                                    
                                                                                                    
                                                                                                    
                           
<?xpacket end="w"?></metadata>
<defs>
    <style>
      .cls-1 {
        fill: #6e6e6e;
        fill-rule: evenodd;
      }
    </style>
  </defs>
  <path id="Star_Icon" data-name="Star Icon" class="cls-1" d="M19.927,8.969a1.158,1.158,0,0,0-.92-0.779l-4.156-.638L13.044,3.681a1.151,1.151,0,0,0-2.088,0L9.149,7.552,4.993,8.19a1.162,1.162,0,0,0-.651,1.956l3.046,3.139L6.681,17.64a1.163,1.163,0,0,0,.473,1.135,1.15,1.15,0,0,0,1.223.067L12,16.829l3.624,2.014a1.154,1.154,0,0,0,1.7-1.2l-0.707-4.355,3.046-3.139A1.164,1.164,0,0,0,19.927,8.969Zm-4.14,3.507a1.163,1.163,0,0,0-.312,1l0.706,4.355-3.623-2.014a1.149,1.149,0,0,0-1.116,0L7.818,17.828l0.707-4.355a1.163,1.163,0,0,0-.313-1L5.167,9.337,9.323,8.7a1.155,1.155,0,0,0,.87-0.653L12,4.174l1.807,3.871a1.154,1.154,0,0,0,.87.653l4.157,0.639Z" transform="translate(-4 -3)"/>
</svg>
